<svg width="31" height="30" viewBox="0 0 31 30" fill="none" xmlns="http://www.w3.org/2000/svg">
<path d="M16.7206 8.08589C18.2775 8.08589 19.5397 6.86447 19.5397 5.35776C19.5397 3.85106 18.2775 2.62964 16.7206 2.62964C15.1637 2.62964 13.9016 3.85106 13.9016 5.35776C13.9016 6.86447 15.1637 8.08589 16.7206 8.08589Z" stroke="#61B827"/>
<path d="M25.977 17.5405C27.5339 17.5405 28.7961 16.3191 28.7961 14.8124C28.7961 13.3057 27.5339 12.0842 25.977 12.0842C24.4201 12.0842 23.158 13.3057 23.158 14.8124C23.158 16.3191 24.4201 17.5405 25.977 17.5405Z" stroke="#61B827"/>
<path d="M16.7206 26.4328C18.2775 26.4328 19.5397 25.2114 19.5397 23.7047C19.5397 22.198 18.2775 20.9766 16.7206 20.9766C15.1637 20.9766 13.9016 22.198 13.9016 23.7047C13.9016 25.2114 15.1637 26.4328 16.7206 26.4328Z" stroke="#61B827"/>
<path d="M7.34311 22.4298C8.90004 22.4298 10.1622 21.2083 10.1622 19.7016C10.1622 18.1949 8.90004 16.9735 7.34311 16.9735C5.78619 16.9735 4.52405 18.1949 4.52405 19.7016C4.52405 21.2083 5.78619 22.4298 7.34311 22.4298Z" stroke="#61B827"/>
<path d="M7.34311 11.7608C8.90004 11.7608 10.1622 10.5394 10.1622 9.03269C10.1622 7.52599 8.90004 6.30457 7.34311 6.30457C5.78619 6.30457 4.52405 7.52599 4.52405 9.03269C4.52405 10.5394 5.78619 11.7608 7.34311 11.7608Z" stroke="#61B827"/>
<path d="M16.7158 15.9235C17.9731 15.9235 18.9923 14.9371 18.9923 13.7203C18.9923 12.5036 17.9731 11.5172 16.7158 11.5172C15.4585 11.5172 14.4392 12.5036 14.4392 13.7203C14.4392 14.9371 15.4585 15.9235 16.7158 15.9235Z" stroke="#61B827"/>
<path d="M9.76984 7.6406L13.9984 6.06091" stroke="#61B827"/>
<path d="M18.6968 7.30786L23.9668 12.9" stroke="#61B827"/>
<path d="M24.2526 16.9688L18.7308 21.7922" stroke="#61B827"/>
<path d="M8.89313 11.311L14.972 21.5673" stroke="#61B827"/>
<path d="M9.83765 20.9718L13.9016 22.7952" stroke="#61B827"/>
<path d="M8.39905 17.1703L15.1948 7.65002" stroke="#61B827"/>
<path d="M9.93933 10.1016L14.6959 12.7031" stroke="#61B827"/>
<path d="M18.9972 13.9688L23.158 14.2734" stroke="#61B827"/>
<path d="M16.7158 15.9281L16.7197 20.9719" stroke="#61B827"/>
</svg>
