<svg width="153" height="48" viewBox="0 0 153 48" fill="none" xmlns="http://www.w3.org/2000/svg">
<path d="M4.212 37C3.756 37 3.372 36.82 3.06 36.46C2.748 36.1 2.592 35.644 2.592 35.092V18.244C2.592 15.988 3.288 14.356 4.68 13.348C6.072 12.316 8.316 11.8 11.412 11.8H15.912C16.704 11.8 17.316 12.016 17.748 12.448C18.204 12.856 18.432 13.444 18.432 14.212C18.432 14.956 18.204 15.532 17.748 15.94C17.316 16.348 16.704 16.552 15.912 16.552H11.16C9.96 16.552 9.096 16.792 8.568 17.272C8.04 17.752 7.776 18.532 7.776 19.612C7.776 19.996 7.752 20.476 7.704 21.052C7.656 21.604 7.584 22.24 7.488 22.96C7.896 22.624 8.412 22.36 9.036 22.168C9.66 21.952 10.272 21.844 10.872 21.844H14.436C15.108 21.844 15.624 22.048 15.984 22.456C16.368 22.864 16.56 23.428 16.56 24.148C16.56 24.868 16.368 25.444 15.984 25.876C15.6 26.308 15.084 26.524 14.436 26.524H10.584C9.48 26.524 8.736 26.752 8.352 27.208C7.968 27.64 7.776 28.528 7.776 29.872V32.248H15.912C16.8 32.248 17.436 32.44 17.82 32.824C18.228 33.208 18.432 33.832 18.432 34.696C18.432 35.512 18.24 36.1 17.856 36.46C17.472 36.82 16.824 37 15.912 37H4.212Z" fill="#F6F6F6"/>
<path d="M34.375 28.239V21.875M34.375 21.875H28.011M34.375 21.875L24.9655 31.2845M30.1486 34.0563C33.3517 34.6907 36.8022 33.7667 39.2845 31.2845C43.2385 27.3304 43.2385 20.9196 39.2845 16.9655C35.3303 13.0115 28.9196 13.0115 24.9655 16.9655C22.4833 19.4478 21.5593 22.8983 22.1937 26.1014" stroke="#389F67" stroke-width="2" stroke-linecap="round" stroke-linejoin="round"/>
<path d="M53.212 29V19.2H60.8V20.656H54.724V27.544H60.8V29H53.212ZM54.01 24.702V23.246H60.03V24.702H54.01ZM72.0411 29L68.3871 24.59L63.7951 19.2H65.8111L69.3391 23.47L74.0571 29H72.0411ZM63.7251 29L68.1211 23.666L69.0031 24.772L65.6431 29H63.7251ZM69.6471 24.45L68.7931 23.386L71.9851 19.2H73.9171L69.6471 24.45ZM77.2882 29V19.2H82.5382C83.0982 19.2 83.6115 19.3353 84.0782 19.606C84.5542 19.8673 84.9322 20.2267 85.2122 20.684C85.4922 21.1413 85.6322 21.65 85.6322 22.21C85.6322 22.7887 85.4782 23.316 85.1702 23.792C84.8715 24.268 84.4748 24.646 83.9802 24.926C83.4855 25.206 82.9348 25.346 82.3282 25.346H78.8002V29H77.2882ZM78.8002 23.89H82.2302C82.5568 23.89 82.8555 23.8153 83.1262 23.666C83.4062 23.5073 83.6255 23.302 83.7842 23.05C83.9522 22.7887 84.0362 22.5087 84.0362 22.21C84.0362 21.9207 83.9522 21.6593 83.7842 21.426C83.6255 21.1927 83.4062 21.006 83.1262 20.866C82.8555 20.726 82.5568 20.656 82.2302 20.656H78.8002V23.89ZM94.2598 29.14C93.4478 29.14 92.7011 29.014 92.0198 28.762C91.3384 28.5007 90.7458 28.1413 90.2418 27.684C89.7378 27.2267 89.3458 26.6947 89.0658 26.088C88.7951 25.472 88.6598 24.8093 88.6598 24.1C88.6598 23.3907 88.7951 22.7327 89.0658 22.126C89.3458 21.51 89.7378 20.9733 90.2418 20.516C90.7458 20.0587 91.3384 19.704 92.0198 19.452C92.7011 19.1907 93.4478 19.06 94.2598 19.06C95.0718 19.06 95.8184 19.1907 96.4998 19.452C97.1811 19.704 97.7738 20.0587 98.2778 20.516C98.7818 20.9733 99.1738 21.51 99.4538 22.126C99.7338 22.7327 99.8738 23.3907 99.8738 24.1C99.8738 24.8093 99.7338 25.472 99.4538 26.088C99.1738 26.6947 98.7818 27.2267 98.2778 27.684C97.7738 28.1413 97.1811 28.5007 96.4998 28.762C95.8184 29.014 95.0718 29.14 94.2598 29.14ZM94.2598 27.67C94.8571 27.67 95.4031 27.5813 95.8978 27.404C96.3924 27.2173 96.8218 26.9653 97.1858 26.648C97.5498 26.3213 97.8298 25.9433 98.0258 25.514C98.2311 25.0753 98.3338 24.604 98.3338 24.1C98.3338 23.596 98.2311 23.1293 98.0258 22.7C97.8298 22.2613 97.5498 21.8833 97.1858 21.566C96.8218 21.2393 96.3924 20.9873 95.8978 20.81C95.4031 20.6233 94.8571 20.53 94.2598 20.53C93.6624 20.53 93.1164 20.6233 92.6218 20.81C92.1271 20.9873 91.6978 21.2347 91.3338 21.552C90.9698 21.8693 90.6898 22.2473 90.4938 22.686C90.2978 23.1153 90.1998 23.5867 90.1998 24.1C90.1998 24.604 90.2978 25.0753 90.4938 25.514C90.6898 25.9527 90.9698 26.3307 91.3338 26.648C91.6978 26.9653 92.1271 27.2173 92.6218 27.404C93.1164 27.5813 93.6624 27.67 94.2598 27.67ZM103.552 29V19.2H105.022L112.414 27.222L112.302 27.348C112.255 27.0773 112.213 26.788 112.176 26.48C112.148 26.172 112.125 25.8547 112.106 25.528C112.087 25.192 112.069 24.8513 112.05 24.506C112.041 24.1513 112.031 23.8013 112.022 23.456C112.022 23.1013 112.022 22.756 112.022 22.42V19.2H113.534V29H112.036L104.742 21.272L104.784 21.076C104.812 21.356 104.835 21.636 104.854 21.916C104.882 22.196 104.91 22.4713 104.938 22.742C104.966 23.0127 104.989 23.274 105.008 23.526C105.027 23.778 105.041 24.0253 105.05 24.268C105.059 24.5013 105.064 24.7207 105.064 24.926V29H103.552ZM117.962 29V19.2H125.55V20.656H119.474V27.544H125.55V29H117.962ZM118.76 24.702V23.246H124.78V24.702H118.76ZM129.665 29V19.2H131.135L138.527 27.222L138.415 27.348C138.368 27.0773 138.326 26.788 138.289 26.48C138.261 26.172 138.238 25.8547 138.219 25.528C138.2 25.192 138.182 24.8513 138.163 24.506C138.154 24.1513 138.144 23.8013 138.135 23.456C138.135 23.1013 138.135 22.756 138.135 22.42V19.2H139.647V29H138.149L130.855 21.272L130.897 21.076C130.925 21.356 130.948 21.636 130.967 21.916C130.995 22.196 131.023 22.4713 131.051 22.742C131.079 23.0127 131.102 23.274 131.121 23.526C131.14 23.778 131.154 24.0253 131.163 24.268C131.172 24.5013 131.177 24.7207 131.177 24.926V29H129.665ZM146.455 29V20.656H143.011V19.2H151.509V20.656H147.967V29H146.455Z" fill="white"/>
</svg>
