<svg width="44" height="48" viewBox="0 0 44 48" fill="none" xmlns="http://www.w3.org/2000/svg">
<path d="M4.212 37C3.756 37 3.372 36.82 3.06 36.46C2.748 36.1 2.592 35.644 2.592 35.092V18.244C2.592 15.988 3.288 14.356 4.68 13.348C6.072 12.316 8.316 11.8 11.412 11.8H15.912C16.704 11.8 17.316 12.016 17.748 12.448C18.204 12.856 18.432 13.444 18.432 14.212C18.432 14.956 18.204 15.532 17.748 15.94C17.316 16.348 16.704 16.552 15.912 16.552H11.16C9.96 16.552 9.096 16.792 8.568 17.272C8.04 17.752 7.776 18.532 7.776 19.612C7.776 19.996 7.752 20.476 7.704 21.052C7.656 21.604 7.584 22.24 7.488 22.96C7.896 22.624 8.412 22.36 9.036 22.168C9.66 21.952 10.272 21.844 10.872 21.844H14.436C15.108 21.844 15.624 22.048 15.984 22.456C16.368 22.864 16.56 23.428 16.56 24.148C16.56 24.868 16.368 25.444 15.984 25.876C15.6 26.308 15.084 26.524 14.436 26.524H10.584C9.48 26.524 8.736 26.752 8.352 27.208C7.968 27.64 7.776 28.528 7.776 29.872V32.248H15.912C16.8 32.248 17.436 32.44 17.82 32.824C18.228 33.208 18.432 33.832 18.432 34.696C18.432 35.512 18.24 36.1 17.856 36.46C17.472 36.82 16.824 37 15.912 37H4.212Z" fill="#373938"/>
<path d="M34.375 28.239V21.875M34.375 21.875H28.011M34.375 21.875L24.9655 31.2845M30.1486 34.0563C33.3517 34.6907 36.8022 33.7667 39.2845 31.2845C43.2385 27.3304 43.2385 20.9196 39.2845 16.9655C35.3303 13.0115 28.9196 13.0115 24.9655 16.9655C22.4833 19.4478 21.5593 22.8983 22.1937 26.1014" stroke="#389F67" stroke-width="2" stroke-linecap="round" stroke-linejoin="round"/>
</svg>
