<svg width="155" height="48" viewBox="0 0 155 48" fill="none" xmlns="http://www.w3.org/2000/svg">
<path d="M4.212 37C3.756 37 3.372 36.82 3.06 36.46C2.748 36.1 2.592 35.644 2.592 35.092V18.244C2.592 15.988 3.288 14.356 4.68 13.348C6.072 12.316 8.316 11.8 11.412 11.8H15.912C16.704 11.8 17.316 12.016 17.748 12.448C18.204 12.856 18.432 13.444 18.432 14.212C18.432 14.956 18.204 15.532 17.748 15.94C17.316 16.348 16.704 16.552 15.912 16.552H11.16C9.96 16.552 9.096 16.792 8.568 17.272C8.04 17.752 7.776 18.532 7.776 19.612C7.776 19.996 7.752 20.476 7.704 21.052C7.656 21.604 7.584 22.24 7.488 22.96C7.896 22.624 8.412 22.36 9.036 22.168C9.66 21.952 10.272 21.844 10.872 21.844H14.436C15.108 21.844 15.624 22.048 15.984 22.456C16.368 22.864 16.56 23.428 16.56 24.148C16.56 24.868 16.368 25.444 15.984 25.876C15.6 26.308 15.084 26.524 14.436 26.524H10.584C9.48 26.524 8.736 26.752 8.352 27.208C7.968 27.64 7.776 28.528 7.776 29.872V32.248H15.912C16.8 32.248 17.436 32.44 17.82 32.824C18.228 33.208 18.432 33.832 18.432 34.696C18.432 35.512 18.24 36.1 17.856 36.46C17.472 36.82 16.824 37 15.912 37H4.212Z" fill="#373938"/>
<path d="M34.375 28.239V21.875M34.375 21.875H28.011M34.375 21.875L24.9655 31.2845M30.1486 34.0563C33.3517 34.6907 36.8022 33.7667 39.2845 31.2845C43.2385 27.3304 43.2385 20.9196 39.2845 16.9655C35.3303 13.0115 28.9196 13.0115 24.9655 16.9655C22.4833 19.4478 21.5593 22.8983 22.1937 26.1014" stroke="#389F67" stroke-width="2" stroke-linecap="round" stroke-linejoin="round"/>
<path d="M55.212 29V19.2H62.8V20.656H56.724V27.544H62.8V29H55.212ZM56.01 24.702V23.246H62.03V24.702H56.01ZM74.0411 29L70.3871 24.59L65.7951 19.2H67.8111L71.3391 23.47L76.0571 29H74.0411ZM65.7251 29L70.1211 23.666L71.0031 24.772L67.6431 29H65.7251ZM71.6471 24.45L70.7931 23.386L73.9851 19.2H75.9171L71.6471 24.45ZM79.2882 29V19.2H84.5382C85.0982 19.2 85.6115 19.3353 86.0782 19.606C86.5542 19.8673 86.9322 20.2267 87.2122 20.684C87.4922 21.1413 87.6322 21.65 87.6322 22.21C87.6322 22.7887 87.4782 23.316 87.1702 23.792C86.8715 24.268 86.4748 24.646 85.9802 24.926C85.4855 25.206 84.9348 25.346 84.3282 25.346H80.8002V29H79.2882ZM80.8002 23.89H84.2302C84.5568 23.89 84.8555 23.8153 85.1262 23.666C85.4062 23.5073 85.6255 23.302 85.7842 23.05C85.9522 22.7887 86.0362 22.5087 86.0362 22.21C86.0362 21.9207 85.9522 21.6593 85.7842 21.426C85.6255 21.1927 85.4062 21.006 85.1262 20.866C84.8555 20.726 84.5568 20.656 84.2302 20.656H80.8002V23.89ZM96.2598 29.14C95.4478 29.14 94.7011 29.014 94.0198 28.762C93.3384 28.5007 92.7458 28.1413 92.2418 27.684C91.7378 27.2267 91.3458 26.6947 91.0658 26.088C90.7951 25.472 90.6598 24.8093 90.6598 24.1C90.6598 23.3907 90.7951 22.7327 91.0658 22.126C91.3458 21.51 91.7378 20.9733 92.2418 20.516C92.7458 20.0587 93.3384 19.704 94.0198 19.452C94.7011 19.1907 95.4478 19.06 96.2598 19.06C97.0718 19.06 97.8184 19.1907 98.4998 19.452C99.1811 19.704 99.7738 20.0587 100.278 20.516C100.782 20.9733 101.174 21.51 101.454 22.126C101.734 22.7327 101.874 23.3907 101.874 24.1C101.874 24.8093 101.734 25.472 101.454 26.088C101.174 26.6947 100.782 27.2267 100.278 27.684C99.7738 28.1413 99.1811 28.5007 98.4998 28.762C97.8184 29.014 97.0718 29.14 96.2598 29.14ZM96.2598 27.67C96.8571 27.67 97.4031 27.5813 97.8978 27.404C98.3924 27.2173 98.8218 26.9653 99.1858 26.648C99.5498 26.3213 99.8298 25.9433 100.026 25.514C100.231 25.0753 100.334 24.604 100.334 24.1C100.334 23.596 100.231 23.1293 100.026 22.7C99.8298 22.2613 99.5498 21.8833 99.1858 21.566C98.8218 21.2393 98.3924 20.9873 97.8978 20.81C97.4031 20.6233 96.8571 20.53 96.2598 20.53C95.6624 20.53 95.1164 20.6233 94.6218 20.81C94.1271 20.9873 93.6978 21.2347 93.3338 21.552C92.9698 21.8693 92.6898 22.2473 92.4938 22.686C92.2978 23.1153 92.1998 23.5867 92.1998 24.1C92.1998 24.604 92.2978 25.0753 92.4938 25.514C92.6898 25.9527 92.9698 26.3307 93.3338 26.648C93.6978 26.9653 94.1271 27.2173 94.6218 27.404C95.1164 27.5813 95.6624 27.67 96.2598 27.67ZM105.552 29V19.2H107.022L114.414 27.222L114.302 27.348C114.255 27.0773 114.213 26.788 114.176 26.48C114.148 26.172 114.125 25.8547 114.106 25.528C114.087 25.192 114.069 24.8513 114.05 24.506C114.041 24.1513 114.031 23.8013 114.022 23.456C114.022 23.1013 114.022 22.756 114.022 22.42V19.2H115.534V29H114.036L106.742 21.272L106.784 21.076C106.812 21.356 106.835 21.636 106.854 21.916C106.882 22.196 106.91 22.4713 106.938 22.742C106.966 23.0127 106.989 23.274 107.008 23.526C107.027 23.778 107.041 24.0253 107.05 24.268C107.059 24.5013 107.064 24.7207 107.064 24.926V29H105.552ZM119.962 29V19.2H127.55V20.656H121.474V27.544H127.55V29H119.962ZM120.76 24.702V23.246H126.78V24.702H120.76ZM131.665 29V19.2H133.135L140.527 27.222L140.415 27.348C140.368 27.0773 140.326 26.788 140.289 26.48C140.261 26.172 140.238 25.8547 140.219 25.528C140.2 25.192 140.182 24.8513 140.163 24.506C140.154 24.1513 140.144 23.8013 140.135 23.456C140.135 23.1013 140.135 22.756 140.135 22.42V19.2H141.647V29H140.149L132.855 21.272L132.897 21.076C132.925 21.356 132.948 21.636 132.967 21.916C132.995 22.196 133.023 22.4713 133.051 22.742C133.079 23.0127 133.102 23.274 133.121 23.526C133.14 23.778 133.154 24.0253 133.163 24.268C133.172 24.5013 133.177 24.7207 133.177 24.926V29H131.665ZM148.455 29V20.656H145.011V19.2H153.509V20.656H149.967V29H148.455Z" fill="black"/>
</svg>
